<svg xmlns="http://www.w3.org/2000/svg" width="1204" height="1148" version="1.0" viewBox="0 0 903 861"><path d="M101.3 142.5c-26.2 5.7-43.4 33.4-36.8 59 2.2 8.4 6.9 16.5 13 22.6 6.4 6.3 11 9.2 19.5 12.1l6.5 2.3h697l6.5-2.3c8.5-2.9 13.1-5.8 19.5-12.1 12.1-12 17.1-29.6 13-45.6-4.8-18.2-19.2-32.2-37.2-36-9.9-2.1-691.4-2.1-701 0zM103 385.1c-17.6 2.9-33.7 18.1-38.5 36.4-6.9 26.6 12.1 55.2 39.5 59.5 9 1.4 687 1.4 696 0 18.6-2.9 34.6-17.7 39.5-36.5 6.9-26.6-12.1-55.2-39.5-59.5-8.2-1.3-689-1.2-697 .1zM104 628c-5.6 1-14.5 4.4-18.5 7-9.7 6.4-18 18.1-21 29.5-6.7 25.9 10.6 53.4 37.2 59 10.2 2.2 690.4 2.2 700.6 0 18-3.8 32.4-17.8 37.2-36 4.1-15.9-.8-33.4-12.8-45.5-5.9-5.9-10.8-9-19.3-12.2l-5.9-2.3-346.5-.1c-190.6-.1-348.5.2-351 .6z"/></svg>