<svg xmlns="http://www.w3.org/2000/svg" width="1074" height="1024"><path d="M120.478 169.477c-31.16 6.779-51.616 39.723-43.767 70.17 2.616 9.99 8.206 19.624 15.461 26.879 7.612 7.493 13.082 10.942 23.192 14.391l7.731 2.735h828.952l7.731-2.735c10.109-3.449 15.58-6.898 23.192-14.391 14.391-14.272 20.337-35.204 15.461-54.233-5.709-21.646-22.835-38.296-44.243-42.815-11.774-2.498-822.292-2.498-833.71 0zm2.021 288.528c-20.932 3.449-40.08 21.527-45.789 43.291-8.206 31.636 14.391 65.65 46.978 70.764 10.704 1.665 817.059 1.665 827.763 0 22.121-3.449 41.15-21.051 46.978-43.41 8.206-31.636-14.391-65.65-46.978-70.764-9.752-1.546-819.438-1.427-828.952.119zm1.19 288.885c-6.66 1.189-17.245 5.233-22.002 8.325-11.536 7.612-21.408 21.527-24.976 35.085-7.968 30.803 12.607 63.509 44.243 70.17 12.131 2.616 821.103 2.616 833.234 0 21.408-4.519 38.534-21.17 44.243-42.815 4.876-18.91-.951-39.723-15.223-54.114-7.017-7.017-12.845-10.704-22.954-14.51l-7.017-2.735-412.098-.119c-226.683-.119-414.476.238-417.449.714z"/></svg>